<?xml version="1.0" encoding="utf-8"?>
<!-- Generator: Adobe Illustrator 21.1.0, SVG Export Plug-In . SVG Version: 6.00 Build 0)  -->
<svg version="1.1" id="Шар_1" xmlns="http://www.w3.org/2000/svg" xmlns:xlink="http://www.w3.org/1999/xlink" x="0px" y="0px"
	 viewBox="0 0 830.1 204.6" style="enable-background:new 0 0 830.1 204.6;" xml:space="preserve">
<style type="text/css">
	.st0{fill:#4DAF4E;}
	.st1{fill:#767B7C;}
	.st2{fill:none;}
	.st3{enable-background:new    ;}
	.st4{fill:#797D7E;}
</style>
<g id="earth_1_">
	<g id="green_1_">
		<path class="st0" d="M105.3,3.1c-3.5-0.5-3.9-0.5-9.9-0.8c-3-0.1-3.2-0.1-8.7,0.1c-2.6,0-2.7,0-7.8,0.6c-1.6,0.2-3.6,0.6-5.2,0.8
			C41.2,10.6,14,33.4,7.7,59.4C33.2-1.5,105.3,5.1,106,5.2l1.8,0.4c3.9,1,6.7,1.7,11.4,4c3.6,2.1,3.9,2.2,5.4,3.4l2.3,1.9l1,1
			c2.6,3.1,3.2,4.5,3.6,5.5c9.2,21.8-33.6,39.9-60.1,30.8c-20.3-6.9-20.6-25.6-0.6-35c-1.3,0.6-4.7,2.1-8.4,4.6
			C35.1,40.7,46.9,72.2,83.9,79c40.2,7.4,93.1-17.7,71.6-51.3l-1.4-1.7l-1.6-1.7c-4.4-4.6-9.1-7.5-13.1-9.8c-2.6-1.4-6.1-3-8.7-4.3
			c-5.7-2.4-7-2.7-13.9-4.8C112.5,4.2,111.8,4.1,105.3,3.1"/>
		<path class="st1" d="M172.8,44.8l1.1,1.9c12,24.8-8.1,42.2-17.2,48.5c-51.6,35.4-143.4,15.4-132.4-41.4
			c-10.1,24-2.7,48.6,19.8,65.9c52.2,40.2,150.8,15.5,144.6-36.3l-1.6-7.5c-1.9-7-2.3-8-6.1-17.2c-3.1-6.5-3.7-7.4-9.1-15.6
			l-1.6-2.1L172.8,44.8z M170.3,41.2l-0.1-0.1l-0.3-0.4L170.3,41.2z"/>
		<path class="st1" d="M185.3,123.9c-27,51.1-157.2,60-182.1-21.3c0.4,2.9,0.8,5.6,1.3,7.9c18,81.6,142.4,87,171.5,40.3
			c1.4-2.3,3-5.5,4.3-7.9c4.4-9.3,5.8-14.8,7.7-22.5c0.7-3.2,1.2-7.6,1.6-10.8C189.2,113.2,188.6,117.7,185.3,123.9"/>
		<path class="st1" d="M15.4,155.3c24.8,41.6,63.6,46.6,93.5,41.6c1.1-0.2,2.6-0.5,3.8-0.7c2.5-0.5,2.5-0.5,7.3-1.9
			c2.5-0.7,2.5-0.7,7.5-2.6c2.7-1,2.7-1,7.7-3.4c2.8-1.4,2.9-1.4,8-4.4c3.1-1.9,3.2-2,8.5-5.8l0.3-0.2
			c-34.6,25.9-102.2,23.9-135.6-21.3"/>
	</g>
</g>
<g>
	<path class="st1" d="M259.4,14.9c2.9,0,5.4,1,7.4,3.1s3.1,4.5,3.1,7.4c0,2.8-1,5.3-3.1,7.3c-2,2.1-4.5,3.1-7.4,3.1
		c-2.8,0-5.3-1-7.3-3.1s-3.1-4.5-3.1-7.3c0-2.9,1-5.4,3.1-7.4C254.1,15.9,256.5,14.9,259.4,14.9z M253.1,55.5h12.7v98.6h-12.7
		L253.1,55.5L253.1,55.5z"/>
	<path class="st1" d="M284.5,154.1l19.1-133.3h2.2L360,130.2l53.7-109.4h2.1L435,154.1h-13.1l-13.2-95.3l-47.1,95.3h-3.4L310.5,58
		l-13.1,96.1H284.5z"/>
	<path class="st1" d="M545.2,55.5v98.7h-12.1v-18.6c-5.1,6.2-10.9,10.8-17.3,13.9c-6.4,3.1-13.4,4.7-21,4.7
		c-13.5,0-25-4.8-34.6-14.5c-9.6-9.6-14.3-21.4-14.3-35.2c0-13.5,4.8-25.1,14.5-34.7c9.6-9.6,21.2-14.4,34.8-14.4
		c7.8,0,14.9,1.6,21.2,4.9c6.3,3.3,11.9,8.2,16.7,14.8V55.5H545.2z M496.1,67.2c-6.8,0-13.1,1.7-18.9,5s-10.4,7.9-13.8,13.9
		s-5.1,12.3-5.1,19c0,6.6,1.7,12.9,5.2,19c3.4,6,8.1,10.7,13.9,14.1s12,5,18.7,5s13.1-1.7,19.1-5c6-3.3,10.6-7.8,13.9-13.5
		c3.2-5.7,4.9-12.1,4.9-19.2c0-10.9-3.6-19.9-10.9-27.2C515.7,70.8,506.7,67.2,496.1,67.2z"/>
	<path class="st1" d="M581.1,18.9h12.7v36.6h18.3v11h-18.3v87.6h-12.7V66.5h-18.5v-11h18.5V18.9z"/>
	<path class="st1" d="M630.6,55.5h13v16.8c3.9-5.7,7.9-9.9,12.2-12.7s8.8-4.2,13.4-4.2c3.5,0,7.3,1.1,11.2,3.4l-6.6,10.7
		c-2.7-1.1-4.9-1.7-6.7-1.7c-4.2,0-8.3,1.7-12.2,5.2s-6.9,8.9-9,16.2c-1.6,5.6-2.4,14.6-2.4,31.6v33.4h-13L630.6,55.5L630.6,55.5z"
		/>
	<path class="st1" d="M706.5,14.9c2.9,0,5.4,1,7.4,3.1s3.1,4.5,3.1,7.4c0,2.8-1,5.3-3.1,7.3c-2,2.1-4.5,3.1-7.4,3.1
		c-2.8,0-5.3-1-7.3-3.1s-3.1-4.5-3.1-7.3c0-2.9,1-5.4,3.1-7.4C701.3,15.9,703.7,14.9,706.5,14.9z M700.2,55.5h12.7v98.6h-12.7V55.5z
		"/>
	<path class="st1" d="M736.6,55.5h15.2L778,91.6l26-36.1h15.3l-33.6,46.6l37.8,52H808l-30-41.4l-29.8,41.4H733l37.4-51.9L736.6,55.5
		z"/>
</g>
<rect x="251" y="178" class="st2" width="575" height="20.5"/>
<g class="st3">
	<path class="st4" d="M255.8,197.4h-2.3v-18.1h2.3V197.4z"/>
	<path class="st4" d="M259.4,190.5c0-2,0.5-3.7,1.6-4.9s2.5-1.9,4.4-1.9c1.9,0,3.4,0.6,4.4,1.9s1.6,2.9,1.6,4.9v0.3
		c0,2-0.5,3.7-1.6,4.9c-1.1,1.3-2.5,1.9-4.4,1.9c-1.9,0-3.4-0.6-4.4-1.9c-1.1-1.3-1.6-2.9-1.6-4.9V190.5z M261.7,190.8
		c0,1.5,0.3,2.7,0.9,3.6s1.5,1.4,2.8,1.4c1.2,0,2.2-0.5,2.8-1.4c0.6-0.9,0.9-2.1,0.9-3.6v-0.3c0-1.4-0.3-2.6-0.9-3.6
		c-0.6-0.9-1.6-1.4-2.8-1.4c-1.2,0-2.1,0.5-2.8,1.4c-0.6,0.9-0.9,2.1-0.9,3.6V190.8z"/>
	<path class="st4" d="M287.1,181.1h-5.7v16.2h-2.3v-16.2h-5.7v-1.9h13.7V181.1z"/>
	<path class="st4" d="M306.3,192.8c0-0.9-0.3-1.6-0.9-2.1c-0.6-0.6-1.8-1-3.4-1.4c-2-0.5-3.5-1.1-4.5-2s-1.6-2-1.6-3.3
		c0-1.4,0.6-2.6,1.7-3.5s2.6-1.4,4.5-1.4c2,0,3.6,0.5,4.7,1.6c1.2,1.1,1.7,2.4,1.7,3.9h-2.3c0-1.1-0.4-2-1.1-2.6s-1.7-1-3.1-1
		c-1.3,0-2.3,0.3-2.9,0.8c-0.7,0.6-1,1.3-1,2.2c0,0.8,0.4,1.5,1.1,2c0.7,0.5,1.9,1,3.5,1.4c1.9,0.5,3.4,1.2,4.4,2.1
		c1,0.9,1.5,2,1.5,3.4c0,1.5-0.6,2.7-1.8,3.5s-2.7,1.3-4.7,1.3c-1.8,0-3.5-0.5-4.8-1.4c-1.4-1-2.1-2.3-2.1-4h2.3
		c0,1.2,0.4,2.1,1.3,2.7c0.9,0.6,2,0.9,3.3,0.9c1.3,0,2.3-0.3,3-0.8C305.9,194.5,306.3,193.7,306.3,192.8z"/>
	<path class="st4" d="M310.9,190.5c0-2,0.5-3.7,1.6-4.9s2.5-1.9,4.4-1.9c1.9,0,3.4,0.6,4.4,1.9s1.6,2.9,1.6,4.9v0.3
		c0,2-0.5,3.7-1.6,4.9c-1.1,1.3-2.5,1.9-4.4,1.9c-1.9,0-3.4-0.6-4.4-1.9c-1.1-1.3-1.6-2.9-1.6-4.9V190.5z M313.2,190.8
		c0,1.5,0.3,2.7,0.9,3.6s1.5,1.4,2.8,1.4c1.2,0,2.2-0.5,2.8-1.4c0.6-0.9,0.9-2.1,0.9-3.6v-0.3c0-1.4-0.3-2.6-0.9-3.6
		c-0.6-0.9-1.6-1.4-2.8-1.4c-1.2,0-2.1,0.5-2.8,1.4c-0.6,0.9-0.9,2.1-0.9,3.6V190.8z"/>
	<path class="st4" d="M328.4,197.4h-2.3V178h2.3V197.4z"/>
	<path class="st4" d="M340.8,195.4L340.8,195.4c-0.5,0.7-1,1.3-1.6,1.6c-0.7,0.4-1.4,0.6-2.3,0.6c-1.5,0-2.6-0.5-3.4-1.4
		c-0.8-0.9-1.2-2.4-1.2-4.4v-7.9h2.3v7.9c0,1.5,0.2,2.5,0.6,3s1.1,0.8,2.1,0.8c0.9,0,1.7-0.2,2.2-0.5c0.6-0.4,1-0.9,1.3-1.6v-9.7
		h2.3v13.5H341L340.8,195.4z"/>
	<path class="st4" d="M349.5,180.6v3.3h2.6v1.8h-2.6v8.2c0,0.7,0.1,1.1,0.3,1.4c0.2,0.3,0.5,0.4,0.9,0.4c0.2,0,0.4,0,0.6,0
		s0.4-0.1,0.6-0.1l0.3,1.6c-0.2,0.1-0.5,0.3-0.9,0.3c-0.4,0.1-0.8,0.1-1.2,0.1c-0.9,0-1.7-0.3-2.2-0.9c-0.5-0.6-0.8-1.5-0.8-2.8
		v-8.2h-1.9v-1.8h1.9v-3.3H349.5z"/>
	<path class="st4" d="M357.3,180.4H355V178h2.3V180.4z M357.3,197.4H355v-13.5h2.3V197.4z"/>
	<path class="st4" d="M360.5,190.5c0-2,0.5-3.7,1.6-4.9s2.5-1.9,4.4-1.9c1.9,0,3.4,0.6,4.4,1.9s1.6,2.9,1.6,4.9v0.3
		c0,2-0.5,3.7-1.6,4.9c-1.1,1.3-2.5,1.9-4.4,1.9c-1.9,0-3.4-0.6-4.4-1.9c-1.1-1.3-1.6-2.9-1.6-4.9V190.5z M362.8,190.8
		c0,1.5,0.3,2.7,0.9,3.6s1.5,1.4,2.8,1.4c1.2,0,2.2-0.5,2.8-1.4c0.6-0.9,0.9-2.1,0.9-3.6v-0.3c0-1.4-0.3-2.6-0.9-3.6
		c-0.6-0.9-1.6-1.4-2.8-1.4c-1.2,0-2.1,0.5-2.8,1.4c-0.6,0.9-0.9,2.1-0.9,3.6V190.8z"/>
	<path class="st4" d="M377.6,183.9l0.2,2l0,0c0.4-0.7,1-1.3,1.7-1.7c0.7-0.4,1.5-0.6,2.3-0.6c1.5,0,2.6,0.4,3.4,1.2
		c0.8,0.8,1.2,2.2,1.2,4v8.5H384v-8.4c0-1.2-0.2-2.1-0.7-2.6c-0.5-0.5-1.2-0.7-2.2-0.7c-0.8,0-1.4,0.2-2,0.5c-0.6,0.4-1,0.9-1.3,1.5
		v9.8h-2.3v-13.5H377.6z"/>
	<path class="st4" d="M397.8,193.8c0-0.6-0.2-1-0.6-1.4s-1.2-0.7-2.4-0.9c-1.7-0.4-2.9-0.8-3.7-1.4c-0.8-0.6-1.2-1.4-1.2-2.5
		c0-1.1,0.5-2,1.4-2.8c0.9-0.8,2.1-1.1,3.6-1.1c1.6,0,2.8,0.4,3.8,1.2c0.9,0.8,1.4,1.8,1.4,3h-2.3c0-0.6-0.3-1.2-0.8-1.6
		c-0.5-0.5-1.2-0.7-2.1-0.7c-0.9,0-1.6,0.2-2,0.6c-0.4,0.4-0.7,0.9-0.7,1.4s0.2,1,0.6,1.3c0.4,0.3,1.2,0.6,2.4,0.8
		c1.7,0.4,3,0.9,3.8,1.5c0.8,0.6,1.2,1.5,1.2,2.5c0,1.2-0.5,2.2-1.4,2.9c-0.9,0.7-2.2,1.1-3.8,1.1c-1.7,0-3.1-0.4-4-1.3
		c-1-0.8-1.4-1.9-1.4-3.1h2.3c0,0.9,0.4,1.6,1,1.9s1.3,0.6,2.2,0.6c0.9,0,1.6-0.2,2.1-0.5C397.6,194.9,397.8,194.4,397.8,193.8z"/>
	<path class="st4" d="M410.7,197.4v-11.7h-2.1v-1.8h2.1v-1.7c0-1.5,0.4-2.6,1.1-3.3c0.7-0.8,1.8-1.2,3.1-1.2c0.3,0,0.6,0,0.8,0.1
		s0.6,0.1,1,0.2l-0.3,1.8c-0.2,0-0.3-0.1-0.5-0.1c-0.2,0-0.4,0-0.7,0c-0.7,0-1.3,0.2-1.6,0.6c-0.4,0.4-0.5,1.1-0.5,1.9v1.7h2.9v1.8
		H413v11.7H410.7z"/>
	<path class="st4" d="M424.7,186l-1.3-0.1c-0.7,0-1.3,0.2-1.7,0.5c-0.5,0.3-0.8,0.8-1.1,1.4v9.6h-2.3v-13.5h2.1l0.2,2l0,0
		c0.4-0.7,0.8-1.2,1.4-1.6c0.6-0.4,1.2-0.6,2-0.6c0.2,0,0.4,0,0.6,0c0.2,0,0.3,0.1,0.5,0.1L424.7,186z"/>
	<path class="st4" d="M426.3,190.5c0-2,0.5-3.7,1.6-4.9s2.5-1.9,4.4-1.9c1.9,0,3.4,0.6,4.4,1.9s1.6,2.9,1.6,4.9v0.3
		c0,2-0.5,3.7-1.6,4.9c-1.1,1.3-2.5,1.9-4.4,1.9c-1.9,0-3.4-0.6-4.4-1.9c-1.1-1.3-1.6-2.9-1.6-4.9V190.5z M428.6,190.8
		c0,1.5,0.3,2.7,0.9,3.6c0.6,0.9,1.5,1.4,2.8,1.4c1.2,0,2.2-0.5,2.8-1.4s0.9-2.1,0.9-3.6v-0.3c0-1.4-0.3-2.6-0.9-3.6
		c-0.6-0.9-1.6-1.4-2.8-1.4c-1.2,0-2.1,0.5-2.8,1.4c-0.6,0.9-0.9,2.1-0.9,3.6V190.8z"/>
	<path class="st4" d="M443.4,183.9l0.2,1.8l0,0c0.4-0.7,1-1.2,1.6-1.5s1.5-0.5,2.4-0.5c0.9,0,1.7,0.2,2.4,0.6
		c0.6,0.4,1.1,1.1,1.4,1.9c0.4-0.8,1-1.4,1.7-1.9s1.5-0.7,2.5-0.7c1.4,0,2.5,0.5,3.3,1.4c0.8,0.9,1.2,2.3,1.2,4.3v8.1h-2.3v-8.1
		c0-1.4-0.2-2.3-0.7-2.9c-0.5-0.5-1.2-0.8-2.1-0.8c-0.9,0-1.6,0.3-2.2,0.9c-0.5,0.6-0.8,1.4-0.9,2.3v0v8.6h-2.3v-8.1
		c0-1.3-0.2-2.2-0.7-2.8s-1.2-0.9-2.1-0.9c-0.8,0-1.5,0.2-1.9,0.5c-0.5,0.3-0.9,0.8-1.1,1.4v9.9h-2.3v-13.5H443.4z"/>
	<path class="st4" d="M472.8,180.6v3.3h2.6v1.8h-2.6v8.2c0,0.7,0.1,1.1,0.3,1.4c0.2,0.3,0.5,0.4,0.9,0.4c0.2,0,0.4,0,0.6,0
		s0.4-0.1,0.6-0.1l0.3,1.6c-0.2,0.1-0.5,0.3-0.9,0.3c-0.4,0.1-0.8,0.1-1.2,0.1c-0.9,0-1.7-0.3-2.2-0.9c-0.5-0.6-0.8-1.5-0.8-2.8
		v-8.2h-1.9v-1.8h1.9v-3.3H472.8z"/>
	<path class="st4" d="M480.4,185.7L480.4,185.7c0.5-0.7,1.1-1.2,1.7-1.5c0.7-0.4,1.4-0.5,2.3-0.5c1.5,0,2.6,0.4,3.4,1.3
		c0.8,0.8,1.2,2.2,1.2,4v8.4h-2.3v-8.4c0-1.2-0.2-2-0.7-2.5c-0.5-0.5-1.2-0.8-2.2-0.8c-0.7,0-1.4,0.2-1.9,0.5
		c-0.6,0.3-1,0.8-1.4,1.4v9.9h-2.3V178h2.3V185.7z"/>
	<path class="st4" d="M498,197.6c-1.9,0-3.4-0.6-4.5-1.8c-1.1-1.2-1.6-2.8-1.6-4.9v-0.6c0-2,0.6-3.6,1.7-4.8
		c1.1-1.3,2.5-1.9,4.1-1.9c1.8,0,3.2,0.5,4.1,1.6c0.9,1.1,1.4,2.5,1.4,4.4v1.5h-8.9c0,1.4,0.4,2.5,1,3.3c0.7,0.8,1.6,1.3,2.8,1.3
		c0.8,0,1.6-0.1,2.2-0.3c0.6-0.2,1.2-0.6,1.6-1l0.9,1.5c-0.5,0.5-1.1,0.9-1.9,1.2C500.1,197.5,499.2,197.6,498,197.6z M497.7,185.5
		c-0.9,0-1.6,0.4-2.2,1.1c-0.6,0.7-1,1.6-1.2,2.7h6.5V189c0-1-0.3-1.8-0.8-2.5C499.5,185.8,498.7,185.5,497.7,185.5z"/>
	<path class="st4" d="M524.9,181.1h-5.7v16.2h-2.3v-16.2h-5.7v-1.9h13.7V181.1z"/>
	<path class="st4" d="M529.7,185.7L529.7,185.7c0.5-0.7,1.1-1.2,1.7-1.5c0.7-0.4,1.4-0.5,2.3-0.5c1.5,0,2.6,0.4,3.4,1.3
		c0.8,0.8,1.2,2.2,1.2,4v8.4H536v-8.4c0-1.2-0.2-2-0.7-2.5c-0.5-0.5-1.2-0.8-2.2-0.8c-0.7,0-1.4,0.2-1.9,0.5c-0.6,0.3-1,0.8-1.4,1.4
		v9.9h-2.3V178h2.3V185.7z"/>
	<path class="st4" d="M544.3,180.4H542V178h2.3V180.4z M544.3,197.4H542v-13.5h2.3V197.4z"/>
	<path class="st4" d="M550.2,183.9l0.2,2l0,0c0.4-0.7,1-1.3,1.7-1.7c0.7-0.4,1.5-0.6,2.3-0.6c1.5,0,2.6,0.4,3.4,1.2s1.2,2.2,1.2,4
		v8.5h-2.3v-8.4c0-1.2-0.2-2.1-0.7-2.6c-0.5-0.5-1.2-0.7-2.2-0.7c-0.8,0-1.4,0.2-2,0.5c-0.6,0.4-1,0.9-1.3,1.5v9.8h-2.3v-13.5H550.2
		z"/>
	<path class="st4" d="M562.1,190.9c0-2.2,0.5-4,1.4-5.3c0.9-1.3,2.2-2,3.9-2c0.9,0,1.6,0.2,2.3,0.5c0.6,0.3,1.2,0.8,1.6,1.5l0.2-1.8
		h1.9v13.3c0,1.8-0.5,3.2-1.5,4.1c-1,1-2.5,1.5-4.3,1.5c-0.7,0-1.4-0.1-2.2-0.3s-1.4-0.4-2.1-0.8l0.6-1.7c0.5,0.3,1.1,0.5,1.7,0.7
		c0.6,0.2,1.2,0.3,1.9,0.3c1.2,0,2.1-0.3,2.7-1c0.6-0.7,0.9-1.6,0.9-2.8v-1.3l0,0c-0.4,0.6-1,1-1.6,1.3c-0.6,0.3-1.3,0.4-2.2,0.4
		c-1.7,0-3-0.6-3.9-1.8c-0.9-1.2-1.4-2.7-1.4-4.7V190.9z M564.4,191.1c0,1.4,0.3,2.5,0.9,3.3s1.5,1.2,2.7,1.2c0.8,0,1.4-0.2,1.9-0.5
		c0.5-0.3,0.9-0.8,1.3-1.5v-6.2c-0.3-0.6-0.7-1.1-1.3-1.4c-0.5-0.3-1.2-0.5-1.9-0.5c-1.2,0-2.1,0.5-2.7,1.5c-0.6,1-0.9,2.3-0.9,3.8
		V191.1z"/>
	<path class="st4" d="M586.1,180.6v3.3h2.6v1.8h-2.6v8.2c0,0.7,0.1,1.1,0.3,1.4c0.2,0.3,0.5,0.4,0.9,0.4c0.2,0,0.4,0,0.6,0
		s0.4-0.1,0.6-0.1l0.3,1.6c-0.2,0.1-0.5,0.3-0.9,0.3s-0.8,0.1-1.2,0.1c-0.9,0-1.7-0.3-2.2-0.9c-0.5-0.6-0.8-1.5-0.8-2.8v-8.2h-1.9
		v-1.8h1.9v-3.3H586.1z"/>
	<path class="st4" d="M590.6,190.5c0-2,0.5-3.7,1.6-4.9s2.5-1.9,4.4-1.9c1.9,0,3.4,0.6,4.4,1.9s1.6,2.9,1.6,4.9v0.3
		c0,2-0.5,3.7-1.6,4.9c-1.1,1.3-2.5,1.9-4.4,1.9c-1.9,0-3.4-0.6-4.4-1.9c-1.1-1.3-1.6-2.9-1.6-4.9V190.5z M592.9,190.8
		c0,1.5,0.3,2.7,0.9,3.6c0.6,0.9,1.5,1.4,2.8,1.4c1.2,0,2.2-0.5,2.8-1.4c0.6-0.9,0.9-2.1,0.9-3.6v-0.3c0-1.4-0.3-2.6-0.9-3.6
		c-0.6-0.9-1.6-1.4-2.8-1.4c-1.2,0-2.1,0.5-2.8,1.4c-0.6,0.9-0.9,2.1-0.9,3.6V190.8z"/>
	<path class="st4" d="M614.7,180.6v3.3h2.6v1.8h-2.6v8.2c0,0.7,0.1,1.1,0.3,1.4c0.2,0.3,0.5,0.4,0.9,0.4c0.2,0,0.4,0,0.6,0
		s0.4-0.1,0.6-0.1l0.3,1.6c-0.2,0.1-0.5,0.3-0.9,0.3c-0.4,0.1-0.8,0.1-1.2,0.1c-0.9,0-1.7-0.3-2.2-0.9c-0.5-0.6-0.8-1.5-0.8-2.8
		v-8.2h-1.9v-1.8h1.9v-3.3H614.7z"/>
	<path class="st4" d="M622.4,185.7L622.4,185.7c0.5-0.7,1.1-1.2,1.7-1.5c0.7-0.4,1.4-0.5,2.3-0.5c1.5,0,2.6,0.4,3.4,1.3
		c0.8,0.8,1.2,2.2,1.2,4v8.4h-2.3v-8.4c0-1.2-0.2-2-0.7-2.5c-0.5-0.5-1.2-0.8-2.2-0.8c-0.7,0-1.4,0.2-1.9,0.5
		c-0.6,0.3-1,0.8-1.4,1.4v9.9H620V178h2.3V185.7z"/>
	<path class="st4" d="M640,197.6c-1.9,0-3.4-0.6-4.5-1.8c-1.1-1.2-1.6-2.8-1.6-4.9v-0.6c0-2,0.6-3.6,1.7-4.8
		c1.1-1.3,2.5-1.9,4.1-1.9c1.8,0,3.2,0.5,4.1,1.6c0.9,1.1,1.4,2.5,1.4,4.4v1.5h-8.9c0,1.4,0.4,2.5,1,3.3c0.7,0.8,1.6,1.3,2.8,1.3
		c0.8,0,1.6-0.1,2.2-0.3c0.6-0.2,1.2-0.6,1.6-1l0.9,1.5c-0.5,0.5-1.1,0.9-1.9,1.2C642.1,197.5,641.1,197.6,640,197.6z M639.6,185.5
		c-0.9,0-1.6,0.4-2.2,1.1c-0.6,0.7-1,1.6-1.2,2.7h6.5V189c0-1-0.3-1.8-0.8-2.5C641.5,185.8,640.7,185.5,639.6,185.5z"/>
	<path class="st4" d="M656.7,180.4h-2.3V178h2.3V180.4z M656.7,197.4h-2.3v-13.5h2.3V197.4z"/>
	<path class="st4" d="M663.9,179.2l5.9,14.9l5.9-14.9h3v18.1h-2.3v-7.3l0.2-7.6h0l-6,14.9h-1.5l-6-14.8h0l0.2,7.6v7.3H661v-18.1
		H663.9z"/>
	<path class="st4" d="M691.2,197.4c-0.1-0.4-0.1-0.8-0.2-1c0-0.3-0.1-0.6-0.1-0.9c-0.5,0.6-1.1,1.1-1.8,1.5s-1.5,0.6-2.4,0.6
		c-1.4,0-2.5-0.4-3.2-1.1c-0.7-0.7-1.1-1.7-1.1-3c0-1.3,0.5-2.3,1.5-3c1-0.7,2.5-1.1,4.3-1.1h2.6v-1.4c0-0.8-0.3-1.5-0.8-1.9
		s-1.2-0.7-2.2-0.7c-0.9,0-1.6,0.2-2.1,0.6c-0.5,0.4-0.8,0.9-0.8,1.5h-2.3c0-1,0.5-2,1.5-2.8c1-0.8,2.3-1.2,3.9-1.2
		c1.6,0,2.8,0.4,3.7,1.1c0.9,0.8,1.4,1.9,1.4,3.4v6.5c0,0.5,0,0.9,0.1,1.4s0.1,0.9,0.3,1.3H691.2z M687.1,195.6
		c0.9,0,1.6-0.2,2.3-0.6c0.7-0.4,1.2-0.9,1.5-1.5v-2.5h-2.7c-1.1,0-1.9,0.3-2.5,0.8s-0.9,1.1-0.9,1.8c0,0.6,0.2,1.1,0.6,1.5
		C685.7,195.5,686.3,195.6,687.1,195.6z"/>
	<path class="st4" d="M699.6,180.6v3.3h2.6v1.8h-2.6v8.2c0,0.7,0.1,1.1,0.3,1.4c0.2,0.3,0.5,0.4,0.9,0.4c0.2,0,0.4,0,0.6,0
		s0.4-0.1,0.6-0.1l0.3,1.6c-0.2,0.1-0.5,0.3-0.9,0.3s-0.8,0.1-1.2,0.1c-0.9,0-1.7-0.3-2.2-0.9c-0.5-0.6-0.8-1.5-0.8-2.8v-8.2h-1.9
		v-1.8h1.9v-3.3H699.6z"/>
	<path class="st4" d="M711.4,186l-1.3-0.1c-0.7,0-1.3,0.2-1.7,0.5c-0.5,0.3-0.8,0.8-1.1,1.4v9.6h-2.3v-13.5h2.1l0.2,2l0,0
		c0.4-0.7,0.8-1.2,1.4-1.6c0.6-0.4,1.2-0.6,2-0.6c0.2,0,0.4,0,0.6,0c0.2,0,0.3,0.1,0.5,0.1L711.4,186z"/>
	<path class="st4" d="M716.3,180.4H714V178h2.3V180.4z M716.3,197.4H714v-13.5h2.3V197.4z"/>
	<path class="st4" d="M724.6,188.9l3-5h2.7l-4.4,6.7l4.5,6.8h-2.6l-3.1-5.1l-3.1,5.1h-2.7l4.5-6.8l-4.4-6.7h2.7L724.6,188.9z"/>
	<path class="st4" d="M752.6,191.6c-0.2,1.8-0.9,3.3-2,4.4s-2.7,1.6-4.7,1.6c-2.1,0-3.8-0.7-5-2.1c-1.3-1.4-1.9-3.3-1.9-5.6v-3.2
		c0-2.3,0.6-4.1,1.9-5.6c1.3-1.4,2.9-2.2,5-2.2c2,0,3.6,0.5,4.7,1.6c1.1,1,1.8,2.5,2,4.5h-2.3c-0.2-1.4-0.6-2.4-1.3-3.1
		c-0.7-0.7-1.7-1.1-3.1-1.1c-1.4,0-2.6,0.5-3.4,1.6s-1.2,2.5-1.2,4.2v3.2c0,1.7,0.4,3.1,1.2,4.2s2,1.6,3.4,1.6c1.4,0,2.4-0.3,3.1-1
		c0.7-0.7,1.1-1.7,1.3-3.1H752.6z"/>
	<path class="st4" d="M758,197.4h-2.3V178h2.3V197.4z"/>
	<path class="st4" d="M761.2,190.5c0-2,0.5-3.7,1.6-4.9s2.5-1.9,4.4-1.9c1.9,0,3.4,0.6,4.4,1.9s1.6,2.9,1.6,4.9v0.3
		c0,2-0.5,3.7-1.6,4.9c-1.1,1.3-2.5,1.9-4.4,1.9c-1.9,0-3.4-0.6-4.4-1.9c-1.1-1.3-1.6-2.9-1.6-4.9V190.5z M763.5,190.8
		c0,1.5,0.3,2.7,0.9,3.6c0.6,0.9,1.5,1.4,2.8,1.4c1.2,0,2.2-0.5,2.8-1.4s0.9-2.1,0.9-3.6v-0.3c0-1.4-0.3-2.6-0.9-3.6
		c-0.6-0.9-1.6-1.4-2.8-1.4c-1.2,0-2.1,0.5-2.8,1.4c-0.6,0.9-0.9,2.1-0.9,3.6V190.8z"/>
	<path class="st4" d="M784.8,195.4L784.8,195.4c-0.5,0.7-1,1.3-1.6,1.6c-0.7,0.4-1.4,0.6-2.3,0.6c-1.5,0-2.6-0.5-3.4-1.4
		c-0.8-0.9-1.2-2.4-1.2-4.4v-7.9h2.3v7.9c0,1.5,0.2,2.5,0.6,3c0.4,0.5,1.1,0.8,2.1,0.8c0.9,0,1.7-0.2,2.2-0.5c0.6-0.4,1-0.9,1.3-1.6
		v-9.7h2.3v13.5H785L784.8,195.4z"/>
	<path class="st4" d="M790.1,190.9c0-2.2,0.5-4,1.4-5.3s2.2-2,3.9-2c0.8,0,1.5,0.1,2.2,0.4c0.6,0.3,1.1,0.7,1.6,1.3l0,0V178h2.3
		v19.4h-2l-0.2-1.7c-0.4,0.6-1,1.1-1.6,1.4c-0.6,0.3-1.4,0.5-2.3,0.5c-1.7,0-3-0.6-3.9-1.8c-0.9-1.2-1.4-2.7-1.4-4.7V190.9z
		 M792.4,191.1c0,1.4,0.3,2.5,0.8,3.3c0.6,0.8,1.4,1.2,2.7,1.2c0.8,0,1.4-0.2,1.9-0.5s0.9-0.8,1.3-1.5v-6.2
		c-0.3-0.6-0.8-1.1-1.3-1.4c-0.5-0.3-1.1-0.5-1.9-0.5c-1.2,0-2.1,0.5-2.7,1.5c-0.6,1-0.8,2.3-0.8,3.8V191.1z"/>
</g>
</svg>
