<?xml version="1.0" encoding="utf-8"?>
<!-- Generator: Adobe Illustrator 16.0.3, SVG Export Plug-In . SVG Version: 6.00 Build 0)  -->
<!DOCTYPE svg PUBLIC "-//W3C//DTD SVG 1.1//EN" "http://www.w3.org/Graphics/SVG/1.1/DTD/svg11.dtd">
<svg version="1.1" xmlns="http://www.w3.org/2000/svg" xmlns:xlink="http://www.w3.org/1999/xlink" x="0px" y="0px"
	 width="283.464px" height="283.464px" viewBox="0 0 283.464 283.464" enable-background="new 0 0 283.464 283.464"
	 xml:space="preserve">
<g id="Layer_1" display="none">
</g>
<g id="Green_5_" display="none">

		<line display="inline" fill="none" stroke="#D3E6BF" stroke-width="1.2" stroke-miterlimit="10" x1="222.538" y1="47.205" x2="112.538" y2="59.871"/>

		<line display="inline" fill="none" stroke="#D3E6BF" stroke-width="1.2" stroke-miterlimit="10" x1="222.538" y1="47.205" x2="259.871" y2="196.538"/>

		<line display="inline" fill="none" stroke="#D3E6BF" stroke-width="1.2" stroke-miterlimit="10" x1="222.538" y1="47.205" x2="167.538" y2="208.538"/>

		<line display="inline" fill="none" stroke="#D3E6BF" stroke-width="1.2" stroke-miterlimit="10" x1="167.538" y1="208.538" x2="259.871" y2="196.538"/>

		<line display="inline" fill="none" stroke="#D3E6BF" stroke-width="1.2" stroke-miterlimit="10" x1="167.538" y1="208.538" x2="259.871" y2="270.538"/>

		<line display="inline" fill="none" stroke="#D3E6BF" stroke-width="1.2" stroke-miterlimit="10" x1="259.871" y1="196.538" x2="259.871" y2="270.538"/>

		<line display="inline" fill="none" stroke="#D3E6BF" stroke-width="1.2" stroke-miterlimit="10" x1="167.538" y1="208.538" x2="101.713" y2="270.538"/>

		<line display="inline" fill="none" stroke="#D3E6BF" stroke-width="1.2" stroke-miterlimit="10" x1="101.713" y1="270.538" x2="259.871" y2="270.538"/>

		<line display="inline" fill="none" stroke="#D3E6BF" stroke-width="1.2" stroke-miterlimit="10" x1="25.871" y1="116.572" x2="167.538" y2="208.538"/>

		<line display="inline" fill="none" stroke="#D3E6BF" stroke-width="1.2" stroke-miterlimit="10" x1="25.871" y1="116.572" x2="112.538" y2="59.871"/>

		<line display="inline" fill="none" stroke="#D3E6BF" stroke-width="1.2" stroke-miterlimit="10" x1="112.538" y1="59.871" x2="167.538" y2="208.538"/>

		<line display="inline" fill="none" stroke="#D3E6BF" stroke-width="1.2" stroke-miterlimit="10" x1="222.538" y1="47.205" x2="309.538" y2="121.871"/>

		<line display="inline" fill="none" stroke="#D3E6BF" stroke-width="1.2" stroke-miterlimit="10" x1="259.871" y1="196.538" x2="309.538" y2="121.871"/>

		<line display="inline" fill="none" stroke="#D3E6BF" stroke-width="1.2" stroke-miterlimit="10" x1="259.871" y1="270.538" x2="387.538" y2="270.538"/>

		<line display="inline" fill="none" stroke="#D3E6BF" stroke-width="1.2" stroke-miterlimit="10" x1="309.538" y1="121.871" x2="387.538" y2="270.538"/>

		<line display="inline" fill="none" stroke="#D3E6BF" stroke-width="1.2" stroke-miterlimit="10" x1="102.88" y1="-16.348" x2="112.538" y2="59.871"/>

		<line display="inline" fill="none" stroke="#D3E6BF" stroke-width="1.2" stroke-miterlimit="10" x1="102.88" y1="-16.348" x2="222.538" y2="47.205"/>

		<line display="inline" fill="none" stroke="#D3E6BF" stroke-width="1.2" stroke-miterlimit="10" x1="25.871" y1="116.572" x2="102.88" y2="-16.348"/>

		<line display="inline" fill="none" stroke="#D3E6BF" stroke-width="1.2" stroke-miterlimit="10" x1="259.871" y1="196.538" x2="387.538" y2="270.538"/>

		<line display="inline" fill="none" stroke="#D3E6BF" stroke-width="1.2" stroke-miterlimit="10" x1="222.538" y1="47.205" x2="259.871" y2="-12.796"/>

		<line display="inline" fill="none" stroke="#D3E6BF" stroke-width="1.2" stroke-miterlimit="10" x1="259.871" y1="-12.796" x2="309.538" y2="121.871"/>

		<line display="inline" fill="none" stroke="#D3E6BF" stroke-width="1.2" stroke-miterlimit="10" x1="222.538" y1="330.649" x2="309.538" y2="405.316"/>

		<line display="inline" fill="none" stroke="#D3E6BF" stroke-width="1.2" stroke-miterlimit="10" x1="102.88" y1="267.096" x2="112.538" y2="343.315"/>

		<line display="inline" fill="none" stroke="#D3E6BF" stroke-width="1.2" stroke-miterlimit="10" x1="102.88" y1="267.096" x2="222.538" y2="330.649"/>

		<line display="inline" fill="none" stroke="#D3E6BF" stroke-width="1.2" stroke-miterlimit="10" x1="25.872" y1="400.016" x2="102.88" y2="267.096"/>

		<line display="inline" fill="none" stroke="#D3E6BF" stroke-width="1.2" stroke-miterlimit="10" x1="222.538" y1="330.649" x2="259.872" y2="270.649"/>

		<line display="inline" fill="none" stroke="#D3E6BF" stroke-width="1.2" stroke-miterlimit="10" x1="259.872" y1="270.649" x2="309.538" y2="405.316"/>

		<line display="inline" fill="none" stroke="#D3E6BF" stroke-width="1.2" stroke-miterlimit="10" x1="-115.861" y1="208.356" x2="-23.528" y2="196.356"/>

		<line display="inline" fill="none" stroke="#D3E6BF" stroke-width="1.2" stroke-miterlimit="10" x1="-115.861" y1="208.356" x2="-23.528" y2="270.356"/>

		<line display="inline" fill="none" stroke="#D3E6BF" stroke-width="1.2" stroke-miterlimit="10" x1="-23.528" y1="196.356" x2="-23.528" y2="270.356"/>

		<line display="inline" fill="none" stroke="#D3E6BF" stroke-width="1.2" stroke-miterlimit="10" x1="-60.861" y1="47.023" x2="26.139" y2="121.689"/>

		<line display="inline" fill="none" stroke="#D3E6BF" stroke-width="1.2" stroke-miterlimit="10" x1="-23.528" y1="196.356" x2="26.139" y2="121.689"/>

		<line display="inline" fill="none" stroke="#D3E6BF" stroke-width="1.2" stroke-miterlimit="10" x1="-23.528" y1="270.356" x2="104.139" y2="270.356"/>

		<line display="inline" fill="none" stroke="#D3E6BF" stroke-width="1.2" stroke-miterlimit="10" x1="26.139" y1="121.689" x2="104.139" y2="270.356"/>

		<line display="inline" fill="none" stroke="#D3E6BF" stroke-width="1.2" stroke-miterlimit="10" x1="-23.528" y1="196.356" x2="104.139" y2="270.356"/>

		<line display="inline" fill="none" stroke="#D3E6BF" stroke-width="1.2" stroke-miterlimit="10" x1="-60.861" y1="47.023" x2="-23.528" y2="-12.978"/>

		<line display="inline" fill="none" stroke="#D3E6BF" stroke-width="1.2" stroke-miterlimit="10" x1="-23.528" y1="-12.978" x2="26.139" y2="121.689"/>

		<line display="inline" fill="none" stroke="#D3E6BF" stroke-width="1.2" stroke-miterlimit="10" x1="-60.861" y1="330.467" x2="26.139" y2="405.134"/>

		<line display="inline" fill="none" stroke="#D3E6BF" stroke-width="1.2" stroke-miterlimit="10" x1="-60.861" y1="330.467" x2="-23.527" y2="270.467"/>

		<line display="inline" fill="none" stroke="#D3E6BF" stroke-width="1.2" stroke-miterlimit="10" x1="-23.527" y1="270.467" x2="26.139" y2="405.134"/>
</g>
<g id="Gray_5_" display="none">

		<line display="inline" fill="none" stroke="#D1D3D4" stroke-width="2" stroke-miterlimit="10" x1="33.889" y1="43.871" x2="181.871" y2="27.205"/>

		<line display="inline" fill="none" stroke="#D1D3D4" stroke-width="2" stroke-miterlimit="10" x1="171.871" y1="-22.795" x2="181.871" y2="27.205"/>

		<line display="inline" fill="none" stroke="#D1D3D4" stroke-width="2" stroke-miterlimit="10" x1="171.871" y1="-22.795" x2="33.889" y2="43.871"/>

		<line display="inline" fill="none" stroke="#D1D3D4" stroke-width="2" stroke-miterlimit="10" x1="33.889" y1="43.871" x2="169.538" y2="116.538"/>

		<line display="inline" fill="none" stroke="#D1D3D4" stroke-width="2" stroke-miterlimit="10" x1="181.871" y1="27.205" x2="169.538" y2="116.538"/>

		<line display="inline" fill="none" stroke="#D1D3D4" stroke-width="2" stroke-miterlimit="10" x1="181.871" y1="27.205" x2="321.038" y2="43.871"/>

		<line display="inline" fill="none" stroke="#D1D3D4" stroke-width="2" stroke-miterlimit="10" x1="169.538" y1="116.538" x2="321.038" y2="43.871"/>

		<line display="inline" fill="none" stroke="#D1D3D4" stroke-width="2" stroke-miterlimit="10" x1="169.538" y1="116.538" x2="254.038" y2="140.652"/>
	<path display="inline" fill="none" stroke="#D1D3D4" stroke-width="2" stroke-miterlimit="10" d="M321.038,43.871"/>
	<path display="inline" fill="none" stroke="#D1D3D4" stroke-width="2" stroke-miterlimit="10" d="M254.038,140.652"/>

		<line display="inline" fill="none" stroke="#D1D3D4" stroke-width="2" stroke-miterlimit="10" x1="95.038" y1="175.538" x2="254.038" y2="140.652"/>

		<line display="inline" fill="none" stroke="#D1D3D4" stroke-width="2" stroke-miterlimit="10" x1="254.038" y1="140.652" x2="171.871" y2="262.038"/>

		<line display="inline" fill="none" stroke="#D1D3D4" stroke-width="2" stroke-miterlimit="10" x1="171.871" y1="262.038" x2="95.038" y2="175.538"/>

		<line display="inline" fill="none" stroke="#D1D3D4" stroke-width="2" stroke-miterlimit="10" x1="169.538" y1="116.538" x2="95.038" y2="175.538"/>

		<line display="inline" fill="none" stroke="#D1D3D4" stroke-width="2" stroke-miterlimit="10" x1="33.889" y1="43.871" x2="95.038" y2="175.538"/>

		<line display="inline" fill="none" stroke="#D1D3D4" stroke-width="2" stroke-miterlimit="10" x1="95.038" y1="175.538" x2="39.538" y2="241.538"/>

		<line display="inline" fill="none" stroke="#D1D3D4" stroke-width="2" stroke-miterlimit="10" x1="39.538" y1="241.538" x2="171.871" y2="262.038"/>
	<path display="inline" fill="none" stroke="#D1D3D4" stroke-width="2" stroke-miterlimit="10" d="M39.538,241.538"/>
	<path display="inline" fill="none" stroke="#D1D3D4" stroke-width="2" stroke-miterlimit="10" d="M33.889,43.871"/>
	<path display="inline" fill="none" stroke="#D1D3D4" stroke-width="2" stroke-miterlimit="10" d="M254.038,140.652"/>
	<path display="inline" fill="none" stroke="#D1D3D4" stroke-width="2" stroke-miterlimit="10" d="M323.538,241.538"/>

		<line display="inline" fill="none" stroke="#D1D3D4" stroke-width="2" stroke-miterlimit="10" x1="171.871" y1="262.038" x2="323.538" y2="241.538"/>

		<line display="inline" fill="none" stroke="#D1D3D4" stroke-width="2" stroke-miterlimit="10" x1="171.871" y1="-22.795" x2="321.038" y2="43.871"/>

		<line display="inline" fill="none" stroke="#D1D3D4" stroke-width="2" stroke-miterlimit="10" x1="95.038" y1="175.538" x2="-31.962" y2="140.652"/>

		<line display="inline" fill="none" stroke="#D1D3D4" stroke-width="2" stroke-miterlimit="10" x1="33.889" y1="43.871" x2="-31.962" y2="140.652"/>

		<line display="inline" fill="none" stroke="#D1D3D4" stroke-width="2" stroke-miterlimit="10" x1="-31.962" y1="140.652" x2="39.538" y2="241.538"/>

		<line display="inline" fill="none" stroke="#D1D3D4" stroke-width="2" stroke-miterlimit="10" x1="171.884" y1="260.732" x2="181.884" y2="310.732"/>

		<line display="inline" fill="none" stroke="#D1D3D4" stroke-width="2" stroke-miterlimit="10" x1="171.884" y1="260.732" x2="33.903" y2="327.398"/>

		<line display="inline" fill="none" stroke="#D1D3D4" stroke-width="2" stroke-miterlimit="10" x1="171.884" y1="260.732" x2="321.051" y2="327.398"/>

		<line display="inline" fill="none" stroke="#D1D3D4" stroke-width="2" stroke-miterlimit="10" x1="378.508" y1="175.417" x2="251.508" y2="140.532"/>

		<line display="inline" fill="none" stroke="#D1D3D4" stroke-width="2" stroke-miterlimit="10" x1="317.36" y1="43.752" x2="251.508" y2="140.532"/>

		<line display="inline" fill="none" stroke="#D1D3D4" stroke-width="2" stroke-miterlimit="10" x1="251.508" y1="140.532" x2="323.008" y2="241.417"/>

		<line display="inline" fill="none" stroke="#D1D3D4" stroke-width="2" stroke-miterlimit="10" x1="39.538" y1="241.538" x2="33.903" y2="327.398"/>

		<line display="inline" fill="none" stroke="#D1D3D4" stroke-width="2" stroke-miterlimit="10" x1="39.57" y1="-42.389" x2="33.935" y2="43.472"/>

		<line display="inline" fill="none" stroke="#D1D3D4" stroke-width="2" stroke-miterlimit="10" x1="-101.605" y1="27.239" x2="37.562" y2="43.905"/>

		<line display="inline" fill="none" stroke="#D1D3D4" stroke-width="2" stroke-miterlimit="10" x1="-113.938" y1="116.572" x2="37.562" y2="43.905"/>

		<line display="inline" fill="none" stroke="#D1D3D4" stroke-width="2" stroke-miterlimit="10" x1="-111.605" y1="-22.761" x2="37.562" y2="43.905"/>

		<line display="inline" fill="none" stroke="#D1D3D4" stroke-width="2" stroke-miterlimit="10" x1="-111.952" y1="262.088" x2="39.715" y2="241.588"/>
</g>
<g id="BASIC" display="none">
	<path id="Gray" display="inline" fill="#D3E6BF" d="M27.534,128.935c4.677-0.435,8.119-4.583,7.684-9.261
		c-0.435-4.677-4.583-8.119-9.26-7.684c-4.677,0.435-8.119,4.583-7.684,9.26C18.709,125.927,22.857,129.369,27.534,128.935z
		 M260.751,279.019c4.678-0.436,8.119-4.583,7.685-9.262c-0.436-4.676-4.583-8.118-9.262-7.683c-4.676,0.435-8.117,4.583-7.683,9.26
		C251.926,276.012,256.075,279.455,260.751,279.019z M103.667,277.764c4.678-0.436,8.12-4.584,7.684-9.262
		c-0.435-4.677-4.583-8.119-9.26-7.684s-8.119,4.584-7.684,9.26C94.843,274.757,98.991,278.2,103.667,277.764z M220.78,55.695
		c4.676-0.435,8.118-4.582,7.683-9.259c-0.435-4.677-4.582-8.12-9.259-7.685c-4.679,0.435-8.121,4.583-7.685,9.261
		C211.953,52.689,216.101,56.13,220.78,55.695z M114.109,71.822c6.238-0.58,10.825-6.109,10.245-12.347
		c-0.581-6.239-6.109-10.826-12.347-10.246s-10.825,6.109-10.245,12.347C102.343,67.814,107.871,72.402,114.109,71.822z
		 M260.102,208.488c6.237-0.581,10.825-6.109,10.244-12.348c-0.579-6.239-6.108-10.825-12.346-10.244
		c-6.238,0.579-10.828,6.107-10.247,12.345C248.333,204.481,253.864,209.067,260.102,208.488z M166.621,222.657
		c7.8-0.727,13.532-7.634,12.807-15.435c-0.726-7.799-7.635-13.529-15.435-12.804c-7.798,0.725-13.532,7.633-12.805,15.431
		C151.913,217.652,158.821,223.382,166.621,222.657z"/>
	<path id="Green" display="inline" fill="#D2D3D3" d="M36.662,64.393c10.721,0,19.411-8.69,19.411-19.411
		s-8.69-19.411-19.411-19.411s-19.411,8.69-19.411,19.411S25.941,64.393,36.662,64.393z M39.435,252.959
		c6.125,0,11.092-4.967,11.092-11.092c0-6.127-4.967-11.094-11.092-11.094s-11.092,4.967-11.092,11.094
		C28.343,247.993,33.31,252.959,39.435,252.959z M180.86,42.209c7.658,0,13.864-6.207,13.864-13.865
		c0-7.657-6.206-13.865-13.864-13.865c-7.659,0-13.865,6.208-13.865,13.865C166.995,36.002,173.201,42.209,180.86,42.209z
		 M94.896,189.18c7.658,0,13.865-6.207,13.865-13.865s-6.207-13.867-13.865-13.867s-13.865,6.209-13.865,13.867
		S87.237,189.18,94.896,189.18z M252.958,153.129c7.658,0,13.865-6.207,13.865-13.865c0-7.658-6.207-13.865-13.865-13.865
		s-13.866,6.207-13.866,13.865C239.092,146.922,245.3,153.129,252.958,153.129z M172.541,266.825c3.063,0,5.546-2.484,5.546-5.547
		s-2.483-5.547-5.546-5.547s-5.546,2.484-5.546,5.547S169.478,266.825,172.541,266.825z M168.38,136.001
		c10.722,0,19.411-8.69,19.411-19.412s-8.689-19.411-19.411-19.411c-10.721,0-19.411,8.69-19.411,19.411
		S157.66,136.001,168.38,136.001z"/>
</g>
<g id="B" display="none">
	<path id="Gray_4_" display="inline" opacity="0.4" fill="#D3E6BF" d="M27.534,411.804c4.677-0.436,8.119-4.583,7.684-9.261
		c-0.435-4.676-4.583-8.118-9.26-7.683c-4.677,0.435-8.119,4.583-7.684,9.26C18.709,408.796,22.857,412.239,27.534,411.804z
		 M260.751,561.885c4.678-0.436,8.119-4.583,7.685-9.262c-0.436-4.676-4.583-8.118-9.262-7.683c-4.676,0.435-8.117,4.583-7.683,9.26
		C251.926,558.878,256.075,562.321,260.751,561.885z M103.667,560.63c4.678-0.436,8.12-4.584,7.684-9.262
		c-0.435-4.677-4.583-8.119-9.26-7.684s-8.119,4.584-7.684,9.26C94.843,557.624,98.991,561.066,103.667,560.63z M220.78,338.569
		c4.676-0.435,8.118-4.582,7.683-9.259c-0.435-4.678-4.582-8.12-9.259-7.685c-4.679,0.435-8.121,4.583-7.685,9.26
		C211.953,335.562,216.101,339.003,220.78,338.569z M114.109,354.694c6.238-0.579,10.825-6.108,10.245-12.346
		c-0.581-6.238-6.109-10.826-12.347-10.245c-6.238,0.58-10.825,6.108-10.245,12.347
		C102.343,350.687,107.871,355.275,114.109,354.694z M260.102,491.354c6.237-0.581,10.825-6.109,10.244-12.348
		c-0.579-6.239-6.108-10.825-12.346-10.244c-6.238,0.579-10.828,6.107-10.247,12.345
		C248.333,487.347,253.864,491.933,260.102,491.354z M166.621,505.523c7.8-0.727,13.532-7.634,12.807-15.435
		c-0.726-7.799-7.635-13.529-15.435-12.804c-7.798,0.725-13.532,7.633-12.805,15.431
		C151.913,500.518,158.821,506.249,166.621,505.523z"/>
	<path id="Green_4_" display="inline" opacity="0.4" fill="#D2D3D3" d="M36.662,347.266c10.721,0,19.411-8.689,19.411-19.41
		s-8.69-19.41-19.411-19.41s-19.411,8.689-19.411,19.41S25.941,347.266,36.662,347.266z M39.435,535.826
		c6.125,0,11.092-4.967,11.092-11.092c0-6.127-4.967-11.094-11.092-11.094s-11.092,4.967-11.092,11.094
		C28.343,530.859,33.31,535.826,39.435,535.826z M180.86,325.083c7.658,0,13.864-6.206,13.864-13.864
		c0-7.656-6.206-13.864-13.864-13.864c-7.659,0-13.865,6.208-13.865,13.864C166.995,318.876,173.201,325.083,180.86,325.083z
		 M94.896,472.046c7.658,0,13.865-6.207,13.865-13.865s-6.207-13.867-13.865-13.867s-13.865,6.209-13.865,13.867
		S87.237,472.046,94.896,472.046z M252.958,435.999c7.658,0,13.865-6.207,13.865-13.865c0-7.657-6.207-13.864-13.865-13.864
		s-13.866,6.207-13.866,13.864C239.092,429.792,245.3,435.999,252.958,435.999z M172.541,549.691c3.063,0,5.546-2.484,5.546-5.547
		s-2.483-5.547-5.546-5.547s-5.546,2.484-5.546,5.547S169.478,549.691,172.541,549.691z M168.38,418.871
		c10.722,0,19.411-8.689,19.411-19.41s-8.689-19.41-19.411-19.41c-10.721,0-19.411,8.689-19.411,19.41
		S157.66,418.871,168.38,418.871z"/>
</g>
<g id="T" display="none" opacity="0.4">
	<path id="Gray_3_" display="inline" fill="#D3E6BF" d="M27.534-154.246c4.677-0.435,8.119-4.583,7.684-9.261
		c-0.435-4.677-4.583-8.119-9.26-7.684c-4.677,0.435-8.119,4.583-7.684,9.26C18.709-157.254,22.857-153.812,27.534-154.246z
		 M260.751-4.153c4.678-0.436,8.119-4.583,7.685-9.262c-0.436-4.676-4.583-8.119-9.262-7.683c-4.676,0.435-8.117,4.583-7.683,9.26
		C251.926-7.16,256.075-3.717,260.751-4.153z M103.667-5.408c4.678-0.436,8.12-4.584,7.684-9.262
		c-0.435-4.677-4.583-8.119-9.26-7.684s-8.119,4.584-7.684,9.26C94.843-8.415,98.991-4.973,103.667-5.408z M220.78-227.485
		c4.676-0.435,8.118-4.582,7.683-9.259c-0.435-4.677-4.582-8.12-9.259-7.685c-4.679,0.435-8.121,4.583-7.685,9.261
		C211.953-230.492,216.101-227.05,220.78-227.485z M114.109-211.359c6.238-0.58,10.825-6.109,10.245-12.347
		c-0.581-6.239-6.109-10.826-12.347-10.246s-10.825,6.109-10.245,12.347C102.343-215.366,107.871-210.778,114.109-211.359z
		 M260.102-74.688c6.237-0.581,10.825-6.109,10.244-12.348c-0.579-6.239-6.108-10.826-12.346-10.245
		c-6.238,0.579-10.828,6.108-10.247,12.345C248.333-78.695,253.864-74.108,260.102-74.688z M166.621-60.518
		c7.8-0.727,13.532-7.634,12.807-15.436c-0.726-7.799-7.635-13.53-15.435-12.804c-7.798,0.725-13.532,7.633-12.805,15.432
		C151.913-65.523,158.821-59.792,166.621-60.518z"/>
	<path id="Green_3_" display="inline" fill="#D2D3D3" d="M36.662-218.788c10.721,0,19.411-8.69,19.411-19.411
		s-8.69-19.411-19.411-19.411s-19.411,8.69-19.411,19.411S25.941-218.788,36.662-218.788z M39.435-30.214
		c6.125,0,11.092-4.967,11.092-11.092c0-6.127-4.967-11.094-11.092-11.094s-11.092,4.967-11.092,11.094
		C28.343-35.181,33.31-30.214,39.435-30.214z M180.86-240.972c7.658,0,13.864-6.207,13.864-13.865
		c0-7.657-6.206-13.865-13.864-13.865c-7.659,0-13.865,6.208-13.865,13.865C166.995-247.179,173.201-240.972,180.86-240.972z
		 M94.896-93.996c7.658,0,13.865-6.208,13.865-13.866s-6.207-13.868-13.865-13.868s-13.865,6.209-13.865,13.868
		S87.237-93.996,94.896-93.996z M252.958-130.049c7.658,0,13.865-6.208,13.865-13.867c0-7.659-6.207-13.866-13.865-13.866
		s-13.866,6.207-13.866,13.866C239.092-136.256,245.3-130.049,252.958-130.049z M172.541-16.348c3.063,0,5.546-2.484,5.546-5.547
		c0-3.063-2.483-5.547-5.546-5.547s-5.546,2.484-5.546,5.547C166.995-18.833,169.478-16.348,172.541-16.348z M168.38-147.18
		c10.722,0,19.411-8.69,19.411-19.411s-8.689-19.411-19.411-19.411c-10.721,0-19.411,8.69-19.411,19.411
		S157.66-147.18,168.38-147.18z"/>
</g>
<g id="L" display="none" opacity="0.4">
	<path id="Gray_1_" display="inline" fill="#D3E6BF" d="M-256.067,129.206c4.677-0.435,8.119-4.583,7.684-9.261
		c-0.435-4.677-4.583-8.119-9.26-7.684c-4.677,0.435-8.119,4.583-7.684,9.26C-264.892,126.198-260.744,129.64-256.067,129.206z
		 M-22.849,279.291c4.678-0.436,8.119-4.583,7.685-9.262c-0.436-4.676-4.583-8.118-9.262-7.683c-4.676,0.435-8.117,4.583-7.683,9.26
		C-31.674,276.284-27.526,279.726-22.849,279.291z M-179.933,278.036c4.678-0.436,8.12-4.584,7.684-9.262
		c-0.435-4.677-4.583-8.119-9.26-7.684s-8.119,4.584-7.684,9.26C-188.757,275.029-184.61,278.471-179.933,278.036z M-62.821,55.966
		c4.676-0.435,8.118-4.582,7.683-9.259c-0.435-4.677-4.582-8.12-9.259-7.685c-4.679,0.435-8.121,4.583-7.685,9.261
		C-71.648,52.96-67.5,56.401-62.821,55.966z M-169.491,72.093c6.238-0.58,10.825-6.109,10.245-12.347
		c-0.581-6.239-6.109-10.826-12.347-10.246s-10.825,6.109-10.245,12.347C-181.257,68.085-175.729,72.673-169.491,72.093z
		 M-23.499,208.759c6.237-0.581,10.825-6.109,10.244-12.348c-0.579-6.239-6.108-10.825-12.346-10.244
		c-6.238,0.579-10.828,6.107-10.247,12.345C-35.267,204.752-29.737,209.338-23.499,208.759z M-116.98,222.928
		c7.8-0.727,13.532-7.634,12.807-15.435c-0.726-7.799-7.635-13.529-15.435-12.804c-7.798,0.725-13.532,7.633-12.805,15.431
		C-131.688,217.923-124.78,223.654-116.98,222.928z"/>
	<path id="Green_1_" display="inline" fill="#D2D3D3" d="M-246.938,64.664c10.721,0,19.411-8.69,19.411-19.411
		s-8.69-19.411-19.411-19.411s-19.411,8.69-19.411,19.411S-257.66,64.664-246.938,64.664z M-244.166,253.231
		c6.125,0,11.092-4.967,11.092-11.092c0-6.127-4.967-11.094-11.092-11.094s-11.092,4.967-11.092,11.094
		C-255.258,248.264-250.291,253.231-244.166,253.231z M-102.741,42.48c7.658,0,13.864-6.207,13.864-13.865
		c0-7.657-6.206-13.865-13.864-13.865c-7.659,0-13.865,6.208-13.865,13.865C-116.606,36.273-110.4,42.48-102.741,42.48z
		 M-188.705,189.452c7.658,0,13.865-6.207,13.865-13.865s-6.207-13.867-13.865-13.867s-13.865,6.209-13.865,13.867
		S-196.363,189.452-188.705,189.452z M-30.642,153.401c7.658,0,13.865-6.207,13.865-13.865s-6.207-13.865-13.865-13.865
		s-13.866,6.207-13.866,13.865S-38.3,153.401-30.642,153.401z M-111.06,267.096c3.063,0,5.546-2.484,5.546-5.547
		s-2.483-5.547-5.546-5.547s-5.546,2.484-5.546,5.547S-114.123,267.096-111.06,267.096z M-115.22,136.272
		c10.722,0,19.411-8.69,19.411-19.412s-8.689-19.411-19.411-19.411c-10.721,0-19.411,8.69-19.411,19.411
		S-125.941,136.272-115.22,136.272z"/>
</g>
<g id="R" display="none" opacity="0.4">
	<path id="Gray_2_" display="inline" fill="#D3E6BF" d="M310.067,129.206c4.677-0.435,8.119-4.583,7.684-9.261
		c-0.435-4.677-4.583-8.119-9.26-7.684s-8.118,4.583-7.683,9.26C301.243,126.198,305.391,129.64,310.067,129.206z M543.274,279.291
		c4.677-0.436,8.118-4.583,7.684-9.262c-0.436-4.676-4.583-8.118-9.261-7.683c-4.676,0.435-8.117,4.583-7.683,9.26
		C534.449,276.284,538.597,279.726,543.274,279.291z M386.197,278.036c4.678-0.436,8.12-4.584,7.685-9.262
		c-0.435-4.677-4.583-8.119-9.26-7.684s-8.119,4.584-7.684,9.26C377.374,275.029,381.521,278.471,386.197,278.036z M503.304,55.966
		c4.675-0.435,8.117-4.582,7.682-9.259c-0.435-4.677-4.582-8.12-9.258-7.685c-4.679,0.435-8.121,4.583-7.685,9.261
		C494.477,52.96,498.625,56.401,503.304,55.966z M396.638,72.093c6.238-0.58,10.825-6.109,10.245-12.347
		c-0.581-6.239-6.108-10.826-12.347-10.246s-10.824,6.109-10.244,12.347C384.874,68.085,390.401,72.673,396.638,72.093z
		 M542.625,208.759c6.236-0.581,10.824-6.109,10.243-12.348c-0.579-6.239-6.108-10.825-12.345-10.244
		c-6.238,0.579-10.828,6.107-10.247,12.345C530.856,204.752,536.386,209.338,542.625,208.759z M449.147,222.928
		c7.8-0.727,13.532-7.634,12.807-15.435c-0.726-7.799-7.635-13.529-15.435-12.804c-7.797,0.725-13.531,7.633-12.804,15.431
		C434.44,217.923,441.348,223.654,449.147,222.928z"/>
	<path id="Green_2_" display="inline" fill="#D2D3D3" d="M319.195,64.664c10.721,0,19.41-8.69,19.41-19.411
		s-8.689-19.411-19.41-19.411s-19.41,8.69-19.41,19.411S308.474,64.664,319.195,64.664z M321.968,253.231
		c6.125,0,11.092-4.967,11.092-11.092c0-6.127-4.967-11.094-11.092-11.094c-6.126,0-11.092,4.967-11.092,11.094
		C310.876,248.264,315.842,253.231,321.968,253.231z M463.386,42.48c7.657,0,13.863-6.207,13.863-13.865
		c0-7.657-6.206-13.865-13.863-13.865c-7.659,0-13.865,6.208-13.865,13.865C449.521,36.273,455.727,42.48,463.386,42.48z
		 M377.425,189.452c7.658,0,13.865-6.207,13.865-13.865s-6.207-13.867-13.865-13.867c-7.657,0-13.863,6.209-13.863,13.867
		S369.768,189.452,377.425,189.452z M535.481,153.401c7.658,0,13.864-6.207,13.864-13.865s-6.206-13.865-13.864-13.865
		s-13.865,6.207-13.865,13.865S527.823,153.401,535.481,153.401z M455.067,267.096c3.063,0,5.546-2.484,5.546-5.547
		s-2.483-5.547-5.546-5.547s-5.546,2.484-5.546,5.547S452.004,267.096,455.067,267.096z M450.907,136.272
		c10.722,0,19.41-8.69,19.41-19.412s-8.688-19.411-19.41-19.411c-10.72,0-19.41,8.69-19.41,19.411S440.187,136.272,450.907,136.272z
		"/>
</g>
<g id="Layer_9">
	<g>
		<defs>
			<rect id="SVGID_1_" y="0" width="283.465" height="283.464"/>
		</defs>
		<clipPath id="SVGID_2_">
			<use xlink:href="#SVGID_1_"  overflow="visible"/>
		</clipPath>
		<g clip-path="url(#SVGID_2_)">

				<line fill="none" stroke="#EBF4E4" stroke-width="1.2" stroke-miterlimit="10" x1="222.233" y1="47.204" x2="112.233" y2="59.871"/>

				<line fill="none" stroke="#EBF4E4" stroke-width="1.2" stroke-miterlimit="10" x1="222.233" y1="47.204" x2="259.567" y2="196.538"/>

				<line fill="none" stroke="#EBF4E4" stroke-width="1.2" stroke-miterlimit="10" x1="222.233" y1="47.204" x2="167.233" y2="208.538"/>

				<line fill="none" stroke="#EBF4E4" stroke-width="1.2" stroke-miterlimit="10" x1="167.233" y1="208.538" x2="259.567" y2="196.538"/>

				<line fill="none" stroke="#EBF4E4" stroke-width="1.2" stroke-miterlimit="10" x1="167.233" y1="208.538" x2="259.567" y2="270.538"/>

				<line fill="none" stroke="#EBF4E4" stroke-width="1.2" stroke-miterlimit="10" x1="259.567" y1="196.538" x2="259.567" y2="270.538"/>

				<line fill="none" stroke="#EBF4E4" stroke-width="1.2" stroke-miterlimit="10" x1="167.233" y1="208.538" x2="101.409" y2="270.538"/>

				<line fill="none" stroke="#EBF4E4" stroke-width="1.2" stroke-miterlimit="10" x1="101.409" y1="270.538" x2="259.567" y2="270.538"/>

				<line fill="none" stroke="#EBF4E4" stroke-width="1.2" stroke-miterlimit="10" x1="25.567" y1="116.571" x2="167.233" y2="208.538"/>

				<line fill="none" stroke="#EBF4E4" stroke-width="1.2" stroke-miterlimit="10" x1="25.567" y1="116.571" x2="112.233" y2="59.871"/>

				<line fill="none" stroke="#EBF4E4" stroke-width="1.2" stroke-miterlimit="10" x1="112.233" y1="59.871" x2="167.233" y2="208.538"/>

				<line fill="none" stroke="#EBF4E4" stroke-width="1.2" stroke-miterlimit="10" x1="222.233" y1="47.204" x2="309.233" y2="121.871"/>

				<line fill="none" stroke="#EBF4E4" stroke-width="1.2" stroke-miterlimit="10" x1="259.567" y1="196.538" x2="309.233" y2="121.871"/>

				<line fill="none" stroke="#EBF4E4" stroke-width="1.2" stroke-miterlimit="10" x1="259.567" y1="270.538" x2="387.233" y2="270.538"/>

				<line fill="none" stroke="#EBF4E4" stroke-width="1.2" stroke-miterlimit="10" x1="102.576" y1="-16.349" x2="112.233" y2="59.871"/>

				<line fill="none" stroke="#EBF4E4" stroke-width="1.2" stroke-miterlimit="10" x1="102.576" y1="-16.349" x2="222.233" y2="47.204"/>

				<line fill="none" stroke="#EBF4E4" stroke-width="1.2" stroke-miterlimit="10" x1="25.567" y1="116.571" x2="102.576" y2="-16.349"/>

				<line fill="none" stroke="#EBF4E4" stroke-width="1.2" stroke-miterlimit="10" x1="259.567" y1="196.538" x2="387.233" y2="270.538"/>

				<line fill="none" stroke="#EBF4E4" stroke-width="1.2" stroke-miterlimit="10" x1="222.233" y1="47.204" x2="259.567" y2="-12.796"/>

				<line fill="none" stroke="#EBF4E4" stroke-width="1.2" stroke-miterlimit="10" x1="259.567" y1="-12.796" x2="309.233" y2="121.871"/>

				<line fill="none" stroke="#EBF4E4" stroke-width="1.2" stroke-miterlimit="10" x1="222.233" y1="330.649" x2="309.233" y2="405.315"/>

				<line fill="none" stroke="#EBF4E4" stroke-width="1.2" stroke-miterlimit="10" x1="102.576" y1="267.096" x2="112.234" y2="343.315"/>

				<line fill="none" stroke="#EBF4E4" stroke-width="1.2" stroke-miterlimit="10" x1="102.576" y1="267.096" x2="222.233" y2="330.649"/>

				<line fill="none" stroke="#EBF4E4" stroke-width="1.2" stroke-miterlimit="10" x1="25.567" y1="400.016" x2="102.576" y2="267.096"/>

				<line fill="none" stroke="#EBF4E4" stroke-width="1.2" stroke-miterlimit="10" x1="222.233" y1="330.649" x2="259.567" y2="270.649"/>

				<line fill="none" stroke="#EBF4E4" stroke-width="1.2" stroke-miterlimit="10" x1="259.567" y1="270.649" x2="309.233" y2="405.315"/>

				<line fill="none" stroke="#EBF4E4" stroke-width="1.2" stroke-miterlimit="10" x1="-116.165" y1="208.356" x2="-23.832" y2="196.356"/>

				<line fill="none" stroke="#EBF4E4" stroke-width="1.2" stroke-miterlimit="10" x1="-116.165" y1="208.356" x2="-23.832" y2="270.356"/>

				<line fill="none" stroke="#EBF4E4" stroke-width="1.2" stroke-miterlimit="10" x1="-23.832" y1="196.356" x2="-23.832" y2="270.356"/>

				<line fill="none" stroke="#EBF4E4" stroke-width="1.2" stroke-miterlimit="10" x1="-61.165" y1="47.022" x2="25.835" y2="121.689"/>

				<line fill="none" stroke="#EBF4E4" stroke-width="1.2" stroke-miterlimit="10" x1="-23.832" y1="196.356" x2="25.835" y2="121.689"/>

				<line fill="none" stroke="#EBF4E4" stroke-width="1.2" stroke-miterlimit="10" x1="-23.832" y1="270.356" x2="103.835" y2="270.356"/>

				<line fill="none" stroke="#EBF4E4" stroke-width="1.2" stroke-miterlimit="10" x1="25.835" y1="121.689" x2="103.835" y2="270.356"/>

				<line fill="none" stroke="#EBF4E4" stroke-width="1.2" stroke-miterlimit="10" x1="-23.832" y1="196.356" x2="103.835" y2="270.356"/>

				<line fill="none" stroke="#EBF4E4" stroke-width="1.2" stroke-miterlimit="10" x1="-61.165" y1="47.022" x2="-23.832" y2="-12.978"/>

				<line fill="none" stroke="#EBF4E4" stroke-width="1.2" stroke-miterlimit="10" x1="-23.832" y1="-12.978" x2="25.835" y2="121.689"/>
		</g>
		<g clip-path="url(#SVGID_2_)">

				<line fill="none" stroke="#EBEBEA" stroke-width="1.2" stroke-miterlimit="10" x1="33.585" y1="43.871" x2="181.567" y2="27.204"/>

				<line fill="none" stroke="#EBEBEA" stroke-width="1.2" stroke-miterlimit="10" x1="171.567" y1="-22.796" x2="181.567" y2="27.204"/>

				<line fill="none" stroke="#EBEBEA" stroke-width="1.2" stroke-miterlimit="10" x1="171.567" y1="-22.796" x2="33.585" y2="43.871"/>

				<line fill="none" stroke="#EBEBEA" stroke-width="1.2" stroke-miterlimit="10" x1="33.585" y1="43.871" x2="169.233" y2="116.537"/>

				<line fill="none" stroke="#EBEBEA" stroke-width="1.2" stroke-miterlimit="10" x1="181.567" y1="27.204" x2="169.233" y2="116.537"/>

				<line fill="none" stroke="#EBEBEA" stroke-width="1.2" stroke-miterlimit="10" x1="181.567" y1="27.204" x2="320.733" y2="43.871"/>

				<line fill="none" stroke="#EBEBEA" stroke-width="1.2" stroke-miterlimit="10" x1="169.233" y1="116.537" x2="320.733" y2="43.871"/>

				<line fill="none" stroke="#EBEBEA" stroke-width="1.2" stroke-miterlimit="10" x1="169.233" y1="116.537" x2="253.733" y2="140.651"/>
			<path fill="none" stroke="#EBEBEA" stroke-width="1.2" stroke-miterlimit="10" d="M320.733,43.871"/>
			<path fill="none" stroke="#EBEBEA" stroke-width="1.2" stroke-miterlimit="10" d="M253.733,140.651"/>

				<line fill="none" stroke="#EBEBEA" stroke-width="1.2" stroke-miterlimit="10" x1="94.733" y1="175.538" x2="253.733" y2="140.651"/>

				<line fill="none" stroke="#EBEBEA" stroke-width="1.2" stroke-miterlimit="10" x1="253.733" y1="140.651" x2="171.567" y2="262.038"/>

				<line fill="none" stroke="#EBEBEA" stroke-width="1.2" stroke-miterlimit="10" x1="171.567" y1="262.038" x2="94.733" y2="175.538"/>

				<line fill="none" stroke="#EBEBEA" stroke-width="1.2" stroke-miterlimit="10" x1="169.233" y1="116.537" x2="94.733" y2="175.538"/>

				<line fill="none" stroke="#EBEBEA" stroke-width="1.2" stroke-miterlimit="10" x1="33.585" y1="43.871" x2="94.733" y2="175.538"/>

				<line fill="none" stroke="#EBEBEA" stroke-width="1.2" stroke-miterlimit="10" x1="94.733" y1="175.538" x2="39.233" y2="241.538"/>

				<line fill="none" stroke="#EBEBEA" stroke-width="1.2" stroke-miterlimit="10" x1="39.233" y1="241.538" x2="171.567" y2="262.038"/>
			<path fill="none" stroke="#EBEBEA" stroke-width="1.2" stroke-miterlimit="10" d="M39.233,241.538"/>
			<path fill="none" stroke="#EBEBEA" stroke-width="1.2" stroke-miterlimit="10" d="M33.585,43.871"/>
			<path fill="none" stroke="#EBEBEA" stroke-width="1.2" stroke-miterlimit="10" d="M253.733,140.651"/>
			<path fill="none" stroke="#EBEBEA" stroke-width="1.2" stroke-miterlimit="10" d="M323.233,241.538"/>

				<line fill="none" stroke="#EBEBEA" stroke-width="1.2" stroke-miterlimit="10" x1="171.567" y1="262.038" x2="323.233" y2="241.538"/>

				<line fill="none" stroke="#EBEBEA" stroke-width="1.2" stroke-miterlimit="10" x1="171.567" y1="-22.796" x2="320.733" y2="43.871"/>

				<line fill="none" stroke="#EBEBEA" stroke-width="1.2" stroke-miterlimit="10" x1="94.733" y1="175.538" x2="-32.267" y2="140.651"/>

				<line fill="none" stroke="#EBEBEA" stroke-width="1.2" stroke-miterlimit="10" x1="33.585" y1="43.871" x2="-32.267" y2="140.651"/>

				<line fill="none" stroke="#EBEBEA" stroke-width="1.2" stroke-miterlimit="10" x1="-32.267" y1="140.651" x2="39.233" y2="241.538"/>

				<line fill="none" stroke="#EBEBEA" stroke-width="1.2" stroke-miterlimit="10" x1="171.581" y1="260.731" x2="181.581" y2="310.731"/>

				<line fill="none" stroke="#EBEBEA" stroke-width="1.2" stroke-miterlimit="10" x1="171.581" y1="260.731" x2="33.599" y2="327.397"/>

				<line fill="none" stroke="#EBEBEA" stroke-width="1.2" stroke-miterlimit="10" x1="171.581" y1="260.731" x2="320.747" y2="327.397"/>

				<line fill="none" stroke="#EBEBEA" stroke-width="1.2" stroke-miterlimit="10" x1="378.204" y1="175.417" x2="251.204" y2="140.532"/>

				<line fill="none" stroke="#EBEBEA" stroke-width="1.2" stroke-miterlimit="10" x1="317.055" y1="43.751" x2="251.204" y2="140.532"/>

				<line fill="none" stroke="#EBEBEA" stroke-width="1.2" stroke-miterlimit="10" x1="251.204" y1="140.532" x2="322.704" y2="241.417"/>

				<line fill="none" stroke="#EBEBEA" stroke-width="1.2" stroke-miterlimit="10" x1="39.233" y1="241.538" x2="33.599" y2="327.397"/>

				<line fill="none" stroke="#EBEBEA" stroke-width="1.2" stroke-miterlimit="10" x1="39.266" y1="-42.389" x2="33.631" y2="43.471"/>

				<line fill="none" stroke="#EBEBEA" stroke-width="1.2" stroke-miterlimit="10" x1="-101.91" y1="27.238" x2="37.257" y2="43.905"/>

				<line fill="none" stroke="#EBEBEA" stroke-width="1.2" stroke-miterlimit="10" x1="-114.243" y1="116.571" x2="37.257" y2="43.905"/>

				<line fill="none" stroke="#EBEBEA" stroke-width="1.2" stroke-miterlimit="10" x1="-111.91" y1="-22.762" x2="37.257" y2="43.905"/>

				<line fill="none" stroke="#EBEBEA" stroke-width="1.2" stroke-miterlimit="10" x1="-112.256" y1="262.088" x2="39.411" y2="241.588"/>
		</g>
		<path id="Gray_6_" clip-path="url(#SVGID_2_)" fill="#EBF4E3" d="M27.229,128.934c4.677-0.435,8.119-4.583,7.684-9.261
			c-0.435-4.677-4.583-8.119-9.26-7.684c-4.677,0.435-8.119,4.583-7.684,9.26C18.405,125.926,22.553,129.369,27.229,128.934z
			 M260.448,279.018c4.678-0.436,8.119-4.582,7.684-9.262c-0.436-4.676-4.582-8.117-9.262-7.682
			c-4.676,0.434-8.117,4.582-7.682,9.26C251.622,276.012,255.77,279.454,260.448,279.018z M103.363,277.764
			c4.678-0.436,8.12-4.584,7.684-9.262c-0.435-4.678-4.583-8.119-9.26-7.684s-8.119,4.584-7.684,9.26
			C94.539,274.756,98.687,278.2,103.363,277.764z M220.475,55.695c4.676-0.435,8.119-4.582,7.684-9.259s-4.582-8.12-9.26-7.685
			s-8.121,4.583-7.684,9.261C211.649,52.688,215.797,56.13,220.475,55.695z M113.805,71.821c6.238-0.58,10.825-6.109,10.245-12.347
			c-0.581-6.239-6.109-10.826-12.347-10.246s-10.825,6.109-10.245,12.347C102.039,67.814,107.567,72.402,113.805,71.821z
			 M259.797,208.487c6.238-0.58,10.826-6.109,10.244-12.348c-0.578-6.238-6.107-10.824-12.346-10.244s-10.828,6.107-10.246,12.346
			C248.03,204.481,253.559,209.067,259.797,208.487z M166.317,222.657c7.799-0.727,13.531-7.635,12.807-15.436
			c-0.727-7.799-7.635-13.529-15.436-12.803c-7.797,0.725-13.531,7.633-12.805,15.43
			C151.608,217.651,158.516,223.381,166.317,222.657z"/>
		<path id="Green_6_" clip-path="url(#SVGID_2_)" fill="#EBEBE9" d="M36.358,64.393c10.721,0,19.411-8.69,19.411-19.411
			S47.079,25.57,36.358,25.57s-19.411,8.69-19.411,19.411S25.637,64.393,36.358,64.393z M39.131,252.959
			c6.125,0,11.092-4.967,11.092-11.092c0-6.127-4.967-11.094-11.092-11.094s-11.092,4.967-11.092,11.094
			C28.039,247.993,33.005,252.959,39.131,252.959z M180.555,42.208c7.658,0,13.865-6.207,13.865-13.865
			c0-7.657-6.207-13.865-13.865-13.865s-13.865,6.208-13.865,13.865C166.69,36.001,172.897,42.208,180.555,42.208z M94.591,189.18
			c7.658,0,13.865-6.207,13.865-13.865s-6.207-13.867-13.865-13.867s-13.865,6.209-13.865,13.867S86.933,189.18,94.591,189.18z
			 M252.655,153.129c7.658,0,13.865-6.207,13.865-13.865s-6.207-13.865-13.865-13.865s-13.867,6.207-13.867,13.865
			S244.997,153.129,252.655,153.129z M172.237,266.825c3.063,0,5.545-2.484,5.545-5.547s-2.482-5.547-5.545-5.547
			s-5.547,2.484-5.547,5.547S169.174,266.825,172.237,266.825z M168.077,136.001c10.721,0,19.41-8.69,19.41-19.412
			s-8.689-19.411-19.41-19.411s-19.412,8.69-19.412,19.411S157.356,136.001,168.077,136.001z"/>
	</g>
</g>
</svg>
